<?xml version="1.0" standalone="no"?>
<!DOCTYPE svg PUBLIC "-//W3C//DTD SVG 20010904//EN"
 "http://www.w3.org/TR/2001/REC-SVG-20010904/DTD/svg10.dtd">
<svg version="1.0" xmlns="http://www.w3.org/2000/svg"
 width="500.000000pt" height="500.000000pt" viewBox="0 0 500.000000 500.000000"
 preserveAspectRatio="xMidYMid meet">

<g transform="translate(0.000000,500.000000) scale(0.100000,-0.100000)"
fill="#000000" stroke="none">
<path d="M0 2500 l0 -2500 2500 0 2500 0 0 2500 0 2500 -2500 0 -2500 0 0
-2500z m2720 1161 l0 -219 -305 -176 c-167 -97 -307 -176 -310 -176 -3 0 -5
98 -5 218 l0 217 308 178 c169 97 308 177 310 177 1 0 2 -99 2 -219z m-738
-183 c-14 -14 -16 -32 -3 -23 5 3 13 1 16 -5 8 -12 -21 -60 -35 -60 -6 0 0 10
12 22 20 20 21 23 5 26 -20 4 -23 38 -4 45 20 9 22 8 9 -5z m-54 -70 l-1 -43
-4 38 c-3 24 -8 35 -15 31 -7 -4 -8 -2 -4 4 15 25 26 10 24 -30z m-69 -10 c0
-7 -7 -29 -15 -48 -11 -26 -13 -28 -9 -8 3 14 8 33 11 42 5 12 2 15 -12 10
-16 -5 -16 -4 -4 5 20 14 30 14 29 -1z m31 2 c0 -5 -5 -10 -11 -10 -5 0 -7 5
-4 10 3 6 8 10 11 10 2 0 4 -4 4 -10z m102 -27 c-6 -3 -10 -9 -6 -14 3 -5 -2
-9 -10 -9 -9 0 -16 3 -16 6 0 10 34 33 40 27 3 -3 -1 -8 -8 -10z m-203 -45
l-2 -43 -6 35 c-7 33 -5 50 5 50 2 0 3 -19 3 -42z m1001 15 c0 -5 -4 -14 -9
-22 -11 -17 -32 -5 -24 14 5 15 33 21 33 8z m-880 -18 c0 -8 -4 -15 -10 -15
-5 0 -10 7 -10 15 0 8 5 15 10 15 6 0 10 -7 10 -15z m-47 -20 c-3 -9 -8 -14
-10 -11 -3 3 -2 9 2 15 9 16 15 13 8 -4z m867 1 c0 -16 -18 -31 -27 -22 -8 8
5 36 17 36 5 0 10 -6 10 -14z m-890 -22 c0 -8 -4 -13 -9 -10 -5 4 -11 2 -13
-4 -4 -12 -48 -23 -48 -12 0 4 15 14 33 23 17 9 33 17 35 18 1 0 2 -6 2 -15z
m840 -8 c0 -16 -18 -31 -27 -22 -8 8 5 36 17 36 5 0 10 -6 10 -14z m-690 -170
l0 -164 -106 -61 c-58 -34 -108 -61 -110 -61 -2 0 -4 74 -4 164 l0 164 103 60
c56 33 105 61 110 61 4 1 7 -73 7 -163z m1193 -57 c434 -250 404 -229 399
-270 -3 -33 -12 -39 -305 -208 l-302 -175 3 -135 c2 -75 0 -151 -3 -169 -6
-32 -7 -33 -53 -30 l-47 3 -3 120 c-3 144 -4 150 -32 133 -18 -12 -20 -23 -20
-123 0 -60 -4 -116 -9 -123 -5 -9 -24 -12 -52 -10 l-44 3 -3 88 c-3 83 -4 87
-22 77 -11 -6 -21 -7 -22 -3 -1 4 -4 -30 -7 -77 l-6 -85 -44 -3 c-53 -4 -61 5
-61 75 l0 51 -30 -11 c-23 -9 -37 -8 -62 2 -40 17 -148 25 -167 12 -8 -5 -11
-16 -8 -25 5 -13 23 -16 100 -16 104 0 121 -8 115 -57 l-3 -28 -160 0 -160 0
-3 135 c-2 124 -4 136 -23 153 -20 16 -22 16 -34 1 -6 -9 -29 -19 -51 -23
l-39 -6 -5 -130 -5 -130 -50 0 -50 0 -5 130 -5 130 -38 6 c-48 8 -59 19 -55
55 l3 29 105 5 105 5 -57 33 c-32 18 -63 30 -69 26 -8 -4 -9 -3 -5 4 11 19
-32 36 -52 20 -15 -11 -15 -11 -5 3 11 13 4 20 -47 49 -33 19 -57 37 -53 41
13 13 1097 639 1106 639 4 0 157 -86 340 -191z m-1053 -87 c0 -19 -18 -42 -32
-42 -12 0 -9 35 4 48 17 17 28 15 28 -6z m-80 -52 c0 -5 -4 -10 -10 -10 -5 0
-10 5 -10 10 0 6 5 10 10 10 6 0 10 -4 10 -10z m-70 -34 c0 -3 -4 -8 -10 -11
-5 -3 -10 -1 -10 4 0 6 5 11 10 11 6 0 10 -2 10 -4z m-160 -94 c0 -21 -7 -32
-25 -40 -23 -11 -25 -10 -25 12 0 18 28 51 48 55 1 1 2 -12 2 -27z m-762 -395
c6 -49 -11 -57 -115 -57 -77 0 -95 -3 -100 -16 -9 -24 15 -34 90 -34 62 0 71
-3 98 -29 25 -25 29 -37 29 -81 0 -44 -4 -56 -30 -81 l-29 -30 -133 3 -133 3
-3 30 c-6 45 17 55 126 55 91 0 93 1 90 23 -3 20 -9 22 -73 25 -81 3 -111 15
-131 54 -27 51 -10 132 33 157 11 6 72 10 148 8 l130 -2 3 -28z m162 -32 c4
-52 8 -60 25 -60 17 0 21 8 25 60 l5 60 50 0 50 0 3 -75 c4 -96 -2 -120 -31
-120 -39 0 -46 -13 -49 -85 l-3 -70 -50 0 -50 0 -5 75 c-5 75 -5 75 -35 78
-40 5 -45 15 -45 99 0 99 3 105 59 101 l46 -3 5 -60z m538 32 c6 -49 -11 -57
-115 -57 -77 0 -95 -3 -100 -16 -9 -24 15 -34 90 -34 62 0 71 -3 98 -29 25
-25 29 -37 29 -81 0 -44 -4 -56 -30 -81 l-29 -30 -133 3 -133 3 -3 30 c-6 45
17 55 126 55 91 0 93 1 90 23 -3 20 -9 22 -73 25 -81 3 -111 15 -131 54 -27
51 -10 132 33 157 11 6 72 10 148 8 l130 -2 3 -28z m1742 -6 c0 -42 -11 -51
-60 -51 -16 0 -30 -7 -34 -16 -3 -9 -6 -69 -6 -135 l0 -119 -50 0 -49 0 -3
133 -3 132 -25 3 c-66 7 -70 10 -70 52 l0 40 150 0 150 0 0 -39z m384 23 c22
-57 -6 -74 -119 -74 -97 0 -124 -11 -90 -37 12 -8 48 -13 101 -13 74 0 83 -2
89 -20 3 -11 3 -29 0 -40 -6 -18 -15 -20 -94 -20 -65 0 -92 -4 -101 -15 -22
-27 0 -35 95 -35 113 0 141 -17 119 -74 -9 -24 -319 -24 -328 0 -3 9 -6 82 -6
164 0 82 3 155 6 164 5 14 29 16 164 16 135 0 159 -2 164 -16z m384 -19 c6
-45 -18 -55 -125 -55 l-93 0 0 -90 0 -90 93 0 c107 0 131 -10 125 -55 l-3 -30
-120 -3 c-146 -3 -160 0 -185 41 -16 26 -20 50 -20 135 0 107 12 150 47 171
11 6 72 10 148 8 l130 -2 3 -30z m-2981 -920 c29 -88 30 -95 13 -95 -10 0 -22
9 -25 20 -5 15 -15 20 -42 20 -26 0 -36 -5 -40 -20 -3 -11 -13 -20 -23 -20
-17 0 -15 9 13 95 26 79 35 95 52 95 17 0 26 -16 52 -95z m333 75 c0 -11 -7
-20 -15 -20 -8 0 -15 9 -15 20 0 11 7 20 15 20 8 0 15 -9 15 -20z m190 -5 c0
-18 5 -25 20 -25 11 0 20 -4 20 -10 0 -5 -9 -10 -20 -10 -17 0 -20 -7 -20 -44
0 -46 15 -70 26 -42 7 19 34 21 34 3 0 -19 -21 -37 -45 -37 -32 0 -45 20 -45
71 0 29 -5 49 -12 52 -10 4 -10 7 0 18 6 7 12 21 12 31 0 10 7 18 15 18 9 0
15 -9 15 -25z m160 10 c17 -21 4 -32 -20 -17 -12 7 -20 8 -20 2 0 -5 -7 -10
-15 -10 -18 0 -19 12 -3 28 17 17 43 15 58 -3z m360 -5 c0 -13 -7 -20 -20 -20
-13 0 -20 7 -20 20 0 13 7 20 20 20 13 0 20 -7 20 -20z m360 5 c0 -9 -9 -15
-25 -15 -25 0 -25 -1 -25 -80 0 -73 -2 -80 -20 -80 -18 0 -20 7 -20 80 0 79 0
80 -25 80 -16 0 -25 6 -25 15 0 12 14 15 70 15 56 0 70 -3 70 -15z m98 -5
c-11 -17 -38 -28 -38 -16 0 18 15 36 31 36 17 0 18 -3 7 -20z m362 0 c0 -13
-7 -20 -20 -20 -13 0 -20 7 -20 20 0 13 7 20 20 20 13 0 20 -7 20 -20z m-1725
-51 c10 -29 -1 -35 -25 -14 -16 14 -23 16 -32 7 -13 -13 -15 -12 35 -35 61
-28 45 -77 -25 -77 -34 0 -58 18 -58 44 0 11 22 6 37 -9 16 -17 43 -17 45 0 0
6 -16 18 -36 28 -26 12 -36 24 -36 40 0 32 7 37 51 37 29 0 39 -5 44 -21z
m123 9 c7 -7 12 -18 12 -25 0 -18 -27 -16 -34 2 -7 19 -36 20 -36 1 0 -8 15
-20 34 -26 39 -13 51 -33 36 -61 -20 -36 -110 -21 -110 18 0 18 20 16 35 -4 7
-9 19 -14 29 -10 24 10 19 26 -11 38 -39 14 -55 37 -42 60 11 22 68 26 87 7z
m72 -58 c0 -56 -3 -70 -15 -70 -12 0 -15 14 -15 70 0 56 3 70 15 70 12 0 15
-14 15 -70z m118 58 c7 -7 12 -18 12 -25 0 -18 -27 -16 -34 2 -7 19 -36 20
-36 1 0 -8 15 -20 34 -26 39 -13 51 -33 36 -61 -20 -36 -110 -21 -110 18 0 18
20 16 35 -4 7 -9 19 -14 29 -10 24 10 19 26 -11 38 -39 14 -55 37 -42 60 11
22 68 26 87 7z m246 -10 c29 -42 21 -58 -29 -58 -32 0 -45 -4 -45 -14 0 -22
31 -28 52 -10 22 20 37 10 22 -14 -15 -23 -77 -28 -94 -7 -17 20 -18 88 -1
109 20 24 77 21 95 -6z m56 10 c0 -9 3 -9 12 0 7 7 25 12 40 12 34 0 48 -28
48 -96 0 -32 -4 -44 -15 -44 -10 0 -15 10 -15 33 0 56 -10 78 -34 75 -18 -3
-21 -11 -24 -55 -3 -45 -6 -53 -23 -53 -17 0 -19 7 -19 70 0 56 3 70 15 70 8
0 15 -5 15 -12z m218 0 c17 -17 15 -48 -3 -48 -8 0 -15 6 -15 14 0 22 -19 30
-35 16 -19 -16 -19 -64 0 -80 13 -10 19 -9 35 5 23 21 39 12 24 -13 -15 -24
-77 -28 -95 -6 -17 21 -18 87 0 108 16 19 72 21 89 4z m72 -58 c0 -63 -2 -70
-20 -70 -18 0 -20 7 -20 70 0 63 2 70 20 70 18 0 20 -7 20 -70z m117 62 c6 -4
14 -25 18 -47 3 -22 8 -50 11 -62 4 -21 1 -22 -58 -20 -57 2 -63 4 -66 25 -5
32 15 52 50 52 22 0 29 4 26 17 -4 23 -23 27 -41 8 -15 -15 -37 -20 -37 -9 0
3 5 14 10 25 11 19 63 26 87 11z m359 -17 l17 -26 11 23 c13 26 68 37 92 17
19 -15 18 -49 -1 -49 -8 0 -15 6 -15 14 0 22 -19 30 -35 16 -19 -16 -19 -64 0
-80 13 -10 19 -9 35 5 23 21 39 12 24 -13 -8 -11 -24 -17 -50 -17 -32 0 -41 4
-52 28 -11 23 -19 27 -58 27 -31 0 -44 -4 -44 -14 0 -22 31 -28 52 -10 22 20
37 10 22 -14 -15 -23 -77 -28 -94 -7 -17 20 -18 88 -1 109 22 26 77 21 97 -9z
m184 13 c0 -9 3 -9 12 0 7 7 25 12 40 12 34 0 48 -28 48 -96 0 -32 -4 -44 -15
-44 -10 0 -15 10 -15 33 0 56 -10 78 -34 75 -18 -3 -21 -11 -24 -55 -3 -45 -6
-53 -23 -53 -17 0 -19 7 -19 70 0 56 3 70 15 70 8 0 15 -5 15 -12z m160 -58
c0 -63 -2 -70 -20 -70 -18 0 -20 7 -20 70 0 63 2 70 20 70 18 0 20 -7 20 -70z
m118 58 c17 -17 15 -48 -3 -48 -8 0 -15 6 -15 14 0 22 -19 30 -35 16 -19 -16
-19 -64 0 -80 13 -10 19 -9 35 5 23 21 39 12 24 -13 -15 -24 -77 -28 -95 -6
-17 21 -18 87 0 108 16 19 72 21 89 4z m129 4 c6 -4 14 -25 18 -47 3 -22 8
-50 11 -62 4 -21 1 -22 -58 -20 -57 2 -63 4 -66 25 -5 32 15 52 50 52 22 0 29
4 26 17 -4 23 -23 27 -41 8 -15 -15 -37 -20 -37 -9 0 3 5 14 10 25 11 19 63
26 87 11z m213 -11 c5 -11 10 -29 10 -40 0 -18 -6 -21 -46 -21 -47 0 -55 -13
-20 -34 13 -9 20 -7 30 7 15 20 36 23 36 4 0 -37 -68 -51 -102 -20 -23 20 -24
85 -2 107 22 23 81 21 94 -3z m221 -11 c4 -14 7 -44 8 -67 1 -37 -2 -43 -19
-43 -18 0 -20 7 -20 54 0 30 -4 57 -9 60 -15 10 -33 -22 -39 -69 -3 -29 -9
-45 -18 -45 -10 0 -14 15 -14 54 0 30 -4 57 -9 61 -16 9 -41 -37 -41 -77 0
-27 -4 -38 -15 -38 -12 0 -15 14 -15 69 l0 69 92 -2 c89 -1 92 -2 99 -26z
m-1971 -295 c0 -8 -4 -15 -10 -15 -6 0 -10 -28 -10 -65 0 -37 4 -65 10 -65 6
0 10 -7 10 -15 0 -11 -11 -15 -40 -15 -29 0 -40 4 -40 15 0 8 5 15 10 15 6 0
10 28 10 65 0 37 -4 65 -10 65 -5 0 -10 7 -10 15 0 11 11 15 40 15 29 0 40 -4
40 -15z m253 0 c8 -19 -10 -30 -27 -16 -7 6 -16 8 -19 4 -14 -13 -6 -23 18
-23 14 0 25 -4 25 -10 0 -5 -9 -10 -20 -10 -18 0 -20 -7 -20 -60 0 -47 -3 -60
-15 -60 -12 0 -15 13 -15 60 0 34 -4 60 -10 60 -9 0 -5 42 7 63 8 13 71 8 76
-8z m575 3 c-6 -16 -36 -34 -44 -25 -9 9 15 37 33 37 8 0 13 -5 11 -12z m92
-13 c0 -18 5 -25 20 -25 11 0 20 -4 20 -10 0 -5 -9 -10 -20 -10 -17 0 -20 -7
-20 -44 0 -48 13 -67 28 -40 14 25 31 13 21 -14 -7 -19 -15 -23 -41 -20 -33 3
-33 4 -36 61 -2 42 -7 57 -17 57 -20 0 -19 16 0 24 8 3 15 15 15 26 0 11 7 20
15 20 9 0 15 -9 15 -25z m100 5 c0 -11 -7 -20 -15 -20 -8 0 -15 9 -15 20 0 11
7 20 15 20 8 0 15 -9 15 -20z m-970 -42 c0 -9 3 -9 12 0 7 7 25 12 40 12 34 0
48 -28 48 -96 0 -32 -4 -44 -15 -44 -10 0 -15 10 -15 33 0 56 -10 78 -34 75
-18 -3 -21 -11 -24 -55 -3 -45 -6 -53 -23 -53 -17 0 -19 7 -19 70 0 56 3 70
15 70 8 0 15 -5 15 -12z m311 -4 c7 -9 14 -33 14 -54 0 -48 -19 -70 -61 -70
-43 0 -64 23 -64 70 0 22 7 45 16 54 20 21 78 20 95 0z m137 -21 c4 -40 -10
-43 -27 -7 -18 40 -41 14 -41 -47 0 -42 -3 -49 -20 -49 -18 0 -20 7 -20 69 l0
69 53 -1 c51 -2 52 -3 55 -34z m42 25 c0 -9 3 -9 12 0 15 15 55 16 64 1 4 -8
9 -8 17 0 15 15 50 14 65 -1 7 -7 12 -38 12 -70 0 -45 -3 -58 -15 -58 -11 0
-15 12 -15 48 0 61 -11 80 -34 57 -10 -10 -16 -33 -16 -61 0 -32 -4 -44 -15
-44 -11 0 -15 12 -15 50 0 37 -4 52 -16 57 -22 8 -34 -14 -34 -64 0 -32 -4
-43 -15 -43 -12 0 -15 14 -15 70 0 40 4 70 10 70 6 0 10 -5 10 -12z m298 0 c7
-7 12 -34 12 -60 0 -26 5 -48 10 -48 6 0 10 -4 10 -9 0 -4 -29 -9 -65 -9 -62
-1 -65 0 -71 25 -8 31 15 53 58 53 31 0 36 11 12 31 -14 11 -18 11 -29 -4 -14
-20 -35 -22 -35 -4 0 34 71 52 98 25z m182 -58 c0 -56 -3 -70 -15 -70 -12 0
-15 14 -15 70 0 56 3 70 15 70 12 0 15 -14 15 -70z m130 51 c22 -43 1 -57 -29
-20 -16 20 -18 20 -34 4 -20 -20 -22 -45 -4 -69 12 -17 47 -14 47 5 0 5 7 9
15 9 18 0 20 -21 3 -38 -17 -17 -74 -15 -92 4 -9 9 -16 32 -16 54 0 22 7 45
16 54 22 23 81 21 94 -3z m128 7 c7 -7 12 -34 12 -60 0 -26 5 -48 10 -48 6 0
10 -4 10 -9 0 -4 -29 -9 -65 -9 -62 -1 -65 0 -71 25 -8 31 15 53 58 53 31 0
36 11 12 31 -14 11 -18 11 -29 -4 -14 -20 -35 -22 -35 -4 0 34 71 52 98 25z"/>
<path d="M2667 3834 c-4 -4 -7 -14 -7 -23 0 -11 3 -12 11 -4 6 6 10 16 7 23
-2 6 -7 8 -11 4z"/>
<path d="M2620 3794 c0 -8 5 -12 10 -9 6 3 10 10 10 16 0 5 -4 9 -10 9 -5 0
-10 -7 -10 -16z"/>
<path d="M2338 3496 c-22 -22 -23 -46 -3 -46 18 0 28 21 23 46 -3 17 -4 17
-20 0z"/>
<path d="M2332 3408 c-13 -13 -16 -48 -4 -48 14 0 32 23 32 42 0 21 -11 23
-28 6z"/>
<path d="M2138 3375 c-13 -30 -7 -39 21 -30 14 4 21 15 21 31 0 32 -27 32 -42
-1z"/>
<path d="M2338 3326 c-22 -22 -23 -46 -3 -46 18 0 28 21 23 46 -3 17 -4 17
-20 0z"/>
<path d="M2145 3300 c-9 -10 -15 -26 -11 -35 9 -25 46 0 46 30 0 30 -11 32
-35 5z"/>
<path d="M2153 3223 c-25 -25 -29 -38 -12 -49 17 -10 41 21 37 47 l-3 24 -22
-22z"/>
<path d="M1790 3084 c0 -8 5 -12 10 -9 6 3 10 10 10 16 0 5 -4 9 -10 9 -5 0
-10 -7 -10 -16z"/>
<path d="M1791 3046 c-8 -10 -9 -16 -1 -21 5 -3 13 1 16 10 9 22 -1 29 -15 11z"/>
<path d="M1786 2994 c-4 -10 -1 -14 6 -12 15 5 23 28 10 28 -5 0 -13 -7 -16
-16z"/>
<path d="M1785 2951 c-6 -11 9 -23 19 -14 9 9 7 23 -3 23 -6 0 -12 -4 -16 -9z"/>
<path d="M1786 2905 c-3 -9 0 -15 9 -15 8 0 15 7 15 15 0 8 -4 15 -9 15 -5 0
-11 -7 -15 -15z"/>
<path d="M1785 2859 c-4 -6 -5 -13 -2 -16 7 -7 27 6 27 18 0 12 -17 12 -25 -2z"/>
<path d="M2855 3138 c-11 -6 -22 -14 -25 -18 -3 -3 -20 -12 -37 -19 -35 -14
-42 -28 -18 -37 8 -4 12 -10 9 -16 -3 -5 -12 -1 -19 8 -11 15 -16 16 -44 5
-17 -8 -31 -17 -31 -22 0 -5 -6 -9 -13 -9 -7 0 -22 -7 -33 -15 -19 -15 -19
-15 0 -30 11 -8 15 -15 9 -15 -7 0 -15 5 -18 10 -10 16 -44 11 -65 -10 -11
-11 -20 -18 -20 -15 0 3 -13 -1 -30 -10 -16 -9 -30 -20 -30 -26 0 -6 -4 -7
-10 -4 -5 3 -21 -5 -34 -18 -14 -14 -27 -22 -30 -20 -3 3 -18 -3 -33 -13 -15
-10 -41 -26 -58 -35 -16 -10 -29 -22 -28 -28 2 -6 -4 -8 -12 -5 -8 3 -27 -3
-42 -13 -15 -10 -40 -25 -55 -33 -32 -16 -35 -25 -11 -39 10 -5 14 -13 10 -17
-4 -4 -13 1 -21 11 -12 16 -17 17 -45 6 -17 -8 -31 -16 -31 -20 0 -4 -16 -13
-35 -20 -19 -7 -35 -17 -35 -22 0 -5 -7 -9 -15 -9 -8 0 -24 -9 -35 -20 -11
-11 -20 -18 -20 -15 0 3 -13 -1 -30 -10 -16 -9 -30 -19 -30 -23 0 -14 87 -55
103 -49 11 4 14 2 11 -8 -6 -16 31 -39 51 -31 9 3 12 0 9 -8 -8 -20 43 -38 69
-25 18 9 20 9 10 -2 -18 -18 -16 -24 11 -37 17 -7 27 -7 34 0 6 6 44 10 86 9
64 -1 78 1 96 19 11 11 20 17 20 14 0 -8 114 58 118 68 2 4 9 8 15 8 11 0 357
198 367 210 3 3 20 12 38 19 17 8 32 17 32 21 0 4 10 10 23 14 12 3 32 14 44
26 12 11 29 20 37 20 8 0 21 9 29 20 8 11 16 17 20 14 8 -8 58 27 52 36 -3 5
3 6 12 4 10 -2 27 3 38 12 20 15 20 15 -4 35 -12 10 -27 16 -32 13 -5 -3 -9
-1 -9 4 0 13 -56 35 -69 27 -6 -3 -9 0 -6 8 7 16 -38 43 -54 33 -6 -4 -11 -1
-11 6 0 16 -37 41 -50 33 -6 -4 -10 -1 -10 5 0 6 -12 16 -27 23 -16 6 -34 17
-41 24 -16 16 -21 16 -47 1z m15 -42 c0 -2 -7 -6 -15 -10 -8 -3 -15 -1 -15 4
0 6 7 10 15 10 8 0 15 -2 15 -4z m70 -37 c0 -4 -8 -9 -18 -11 -10 -3 -19 0
-19 6 0 7 9 12 19 12 10 0 18 -3 18 -7z m-70 -39 c0 -5 -5 -10 -11 -10 -5 0
-7 5 -4 10 3 6 8 10 11 10 2 0 4 -4 4 -10z m130 -1 c0 -3 -9 -9 -19 -12 -13
-3 -18 0 -15 7 5 13 34 18 34 5z m-287 -17 c-10 -10 -20 -17 -22 -16 -6 5 20
34 30 34 5 0 1 -8 -8 -18z m101 -17 c-4 -8 -10 -12 -15 -9 -11 6 -2 24 11 24
5 0 7 -7 4 -15z m259 0 c-3 -9 -8 -14 -11 -11 -2 3 -14 1 -25 -5 -14 -8 -18
-8 -12 1 5 9 31 23 52 29 1 1 0 -6 -4 -14z m-180 -30 c-3 -9 -8 -14 -11 -11
-2 3 -13 1 -23 -5 -11 -5 -19 -6 -19 -1 0 4 12 13 28 19 15 6 28 11 29 12 1 1
0 -6 -4 -14z m-146 -10 c0 -8 -4 -12 -9 -9 -4 3 -8 9 -8 15 0 5 4 9 8 9 5 0 9
-7 9 -15z m263 10 c0 -2 -10 -9 -22 -15 -22 -11 -22 -10 -4 4 21 17 26 19 26
11z m130 0 c0 -2 -9 -9 -20 -15 -12 -6 -20 -7 -20 -1 0 5 8 12 18 14 9 3 18 5
20 6 1 0 2 -1 2 -4z m-457 -44 c3 -13 1 -18 -9 -14 -7 2 -10 11 -7 19 7 19 10
18 16 -5z m142 9 c-3 -5 -12 -10 -18 -10 -7 0 -6 4 3 10 19 12 23 12 15 0z
m256 -4 c-11 -13 -51 -29 -51 -20 0 3 51 33 59 34 2 0 -2 -6 -8 -14z m-151
-11 c-7 -8 -17 -15 -22 -15 -6 0 -5 7 2 15 7 8 17 15 22 15 6 0 5 -7 -2 -15z
m-417 -20 c-7 -21 -12 -19 -10 4 0 11 5 18 9 15 4 -3 5 -11 1 -19z m111 -10
c-4 -8 -8 -15 -10 -15 -2 0 -4 7 -4 15 0 8 4 15 10 15 5 0 7 -7 4 -15z m136 3
c0 -5 -7 -8 -15 -8 -8 0 -24 -9 -35 -20 -10 -10 -22 -15 -25 -11 -2 5 2 12 11
15 9 3 14 12 11 19 -3 8 6 12 24 12 16 0 29 -3 29 -7z m254 -3 c-4 -8 -14 -15
-23 -15 -14 1 -13 3 3 15 25 19 27 19 20 0z m-154 -10 c-7 -8 -17 -15 -23 -15
-6 0 -2 7 9 15 25 19 30 19 14 0z m105 -4 c3 -6 -4 -15 -15 -21 -19 -10 -20
-10 -8 9 15 24 15 24 23 12z m-518 -16 c0 -8 -4 -12 -9 -9 -5 3 -6 10 -3 15 9
13 12 11 12 -6z m363 -5 c-7 -4 -16 -13 -20 -20 -5 -8 -8 -4 -7 12 2 19 6 24
20 20 13 -3 15 -7 7 -12z m-253 -5 c0 -8 -4 -12 -9 -9 -4 3 -8 9 -8 15 0 5 4
9 8 9 5 0 9 -7 9 -15z m113 0 c0 -12 -19 -12 -23 0 -4 9 -1 12 9 8 7 -3 14 -7
14 -8z m-287 -24 c3 -13 1 -18 -9 -14 -7 2 -10 11 -7 19 7 19 10 18 16 -5z
m537 9 c0 -5 -7 -10 -15 -10 -8 0 -24 -9 -35 -20 -11 -11 -20 -17 -20 -14 0 3
-25 -9 -57 -27 -31 -18 -53 -27 -49 -21 3 6 19 17 34 25 78 41 112 62 112 69
0 4 7 8 15 8 8 0 15 -4 15 -10z m-283 -14 c0 -8 -6 -12 -15 -9 -11 5 -11 7 0
14 7 5 13 9 14 9 0 0 1 -6 1 -14z m-144 -10 c4 -10 1 -13 -8 -9 -8 3 -12 9 -9
14 7 12 11 11 17 -5z m102 5 c3 -5 2 -12 -3 -15 -5 -3 -9 1 -9 9 0 17 3 19 12
6z m143 -10 c-7 -11 -16 -18 -20 -15 -4 3 -2 11 5 19 18 21 29 18 15 -4z
m-412 -20 c0 -12 -6 -17 -18 -13 -13 3 -14 7 -5 18 17 18 23 17 23 -5z m103
-7 c-16 -19 -25 -17 -25 5 0 12 6 17 18 13 14 -3 16 -7 7 -18z m144 2 c4 -10
1 -13 -9 -9 -8 3 -25 -2 -39 -11 -32 -21 -39 -20 -17 2 9 11 19 18 22 16 3 -1
12 1 20 7 19 11 17 11 23 -5z m107 -6 c-14 -11 -29 -20 -35 -20 -5 0 4 9 20
20 38 25 48 25 15 0z m-420 -14 c0 -3 -4 -8 -10 -11 -5 -3 -10 -1 -10 4 0 6 5
11 10 11 6 0 10 -2 10 -4z m110 -11 c0 -12 -19 -12 -23 0 -4 9 -1 12 9 8 7 -3
14 -7 14 -8z m244 -14 c-22 -21 -27 -21 -18 3 3 9 13 16 22 16 13 0 12 -3 -4
-19z m-134 5 c0 -3 -4 -8 -10 -11 -5 -3 -10 -1 -10 4 0 6 5 11 10 11 6 0 10
-2 10 -4z m230 -16 c0 -5 -10 -15 -22 -21 l-23 -12 20 21 c23 24 25 25 25 12z
m-410 -21 c0 -5 -4 -9 -8 -9 -5 0 -9 7 -9 15 0 8 4 12 9 9 4 -3 8 -9 8 -15z
m150 16 c0 -2 -13 -11 -28 -19 -24 -13 -29 -13 -29 -1 0 8 4 12 9 9 4 -3 16 0
25 5 21 12 23 13 23 6z m98 -24 c-7 -11 -16 -18 -20 -15 -4 3 -2 11 5 19 18
21 29 18 15 -4z m112 -6 c0 -2 -9 -9 -20 -15 -16 -9 -18 -8 -14 5 5 13 34 22
34 10z m-540 -15 c0 -5 -5 -10 -11 -10 -5 0 -7 5 -4 10 3 6 8 10 11 10 2 0 4
-4 4 -10z m110 -5 c0 -8 -4 -15 -10 -15 -5 0 -7 7 -4 15 4 8 8 15 10 15 2 0 4
-7 4 -15z m150 7 c0 -4 -13 -13 -29 -19 -24 -9 -29 -8 -24 3 3 8 8 12 12 10 4
-3 13 -1 21 5 18 11 20 11 20 1z m113 -10 c-10 -7 -17 -17 -16 -22 2 -5 -4 -7
-13 -3 -15 5 -15 7 0 15 9 5 14 12 12 16 -3 4 4 8 15 8 19 0 20 -1 2 -14z
m-433 -27 c0 -2 -6 -5 -13 -8 -8 -3 -14 1 -14 8 0 7 6 11 14 8 7 -3 13 -6 13
-8z m530 10 c0 -2 -10 -10 -22 -16 -21 -11 -22 -11 -9 4 13 16 31 23 31 12z
m-416 -20 c-4 -8 -8 -15 -10 -15 -2 0 -4 7 -4 15 0 8 4 15 10 15 5 0 7 -7 4
-15z m136 6 c0 -5 -9 -11 -20 -14 -11 -3 -20 -1 -20 3 0 5 8 11 18 13 9 3 18
5 20 6 1 0 2 -3 2 -8z m115 -7 c-9 -7 -14 -17 -11 -22 3 -6 -2 -8 -13 -5 -18
5 -18 6 -3 22 10 9 23 17 31 17 10 1 9 -3 -4 -12z m-307 -33 c-7 -11 -16 -17
-22 -14 -5 3 -1 12 9 20 25 18 27 17 13 -6z m135 4 c-3 -9 -8 -14 -11 -11 -2
3 -13 1 -23 -5 -11 -5 -19 -6 -19 -1 0 4 12 13 28 19 15 6 28 11 29 12 1 1 0
-6 -4 -14z m-253 1 c0 -2 -9 -6 -20 -9 -11 -3 -18 -1 -14 4 5 9 34 13 34 5z
m370 0 c0 -3 -4 -8 -10 -11 -5 -3 -10 -1 -10 4 0 6 5 11 10 11 6 0 10 -2 10
-4z m111 -20 c-16 -19 -51 -28 -44 -10 2 7 14 15 26 17 12 2 24 5 26 6 2 0 -2
-5 -8 -13z m-146 -5 c-6 -5 -36 -23 -68 -41 -40 -22 -55 -27 -51 -16 3 8 9 15
12 14 17 -2 32 3 44 15 11 11 55 34 68 36 2 1 0 -3 -5 -8z m-275 -7 c0 -2 -9
-8 -20 -14 -15 -8 -18 -8 -14 3 4 11 34 21 34 11z m130 -10 c0 -8 -4 -12 -10
-9 -5 3 -19 1 -30 -5 -11 -6 -20 -8 -20 -6 0 4 48 34 58 36 1 0 2 -7 2 -16z
m230 -11 c0 -1 -15 -10 -32 -19 -27 -14 -31 -14 -21 -2 7 8 11 17 9 19 -2 2 7
4 20 4 13 0 24 -1 24 -2z m-70 -43 c0 -3 -13 -11 -29 -17 -27 -10 -29 -9 -19
6 9 15 48 24 48 11z m-150 -5 c0 -2 -10 -9 -22 -15 -22 -11 -22 -10 -4 4 21
17 26 19 26 11z m80 -34 c0 -5 -10 -11 -22 -14 -22 -6 -22 -6 -4 8 23 17 26
18 26 6z"/>
<path d="M2100 2950 c0 -5 5 -10 10 -10 6 0 10 5 10 10 0 6 -4 10 -10 10 -5 0
-10 -4 -10 -10z"/>
<path d="M1227 1498 c-4 -14 -10 -33 -13 -42 -5 -12 0 -16 20 -16 29 0 29 1
12 50 l-13 35 -6 -27z"/>
<path d="M1917 1483 c-17 -16 -5 -33 23 -33 28 0 30 2 20 20 -11 20 -31 26
-43 13z"/>
<path d="M2393 1423 c-17 -6 -17 -33 0 -33 14 0 37 20 37 32 0 9 -18 9 -37 1z"/>
<path d="M2737 1483 c-17 -16 -5 -33 23 -33 28 0 30 2 20 20 -11 20 -31 26
-43 13z"/>
<path d="M3343 1423 c-17 -6 -17 -33 0 -33 14 0 37 20 37 32 0 9 -18 9 -37 1z"/>
<path d="M3542 1478 c-19 -19 -14 -28 18 -28 32 0 42 23 14 34 -20 8 -18 8
-32 -6z"/>
<path d="M2152 1118 c-31 -31 0 -105 33 -78 25 21 14 90 -15 90 -3 0 -11 -5
-18 -12z"/>
<path d="M2631 1056 c-7 -9 -8 -17 -2 -20 13 -8 38 3 45 20 7 19 -28 19 -43 0z"/>
<path d="M3071 1056 c-7 -9 -8 -17 -2 -20 13 -8 38 3 45 20 7 19 -28 19 -43 0z"/>
</g>
</svg>
